<svg width="41" height="41" viewBox="0 0 41 41" fill="none" xmlns="http://www.w3.org/2000/svg">
<path fill-rule="evenodd" clip-rule="evenodd" d="M8.45459 0.329285C4.03631 0.329285 0.45459 3.911 0.45459 8.32928V32.4458C0.45459 36.8641 4.0363 40.4458 8.45458 40.4458H32.5711C36.9894 40.4458 40.5711 36.8641 40.5711 32.4458V8.32928C40.5711 3.91101 36.9894 0.329285 32.5711 0.329285H8.45459ZM4.45459 8.32928C4.45459 6.12014 6.24545 4.32928 8.45459 4.32928H32.5711C34.7803 4.32928 36.5711 6.12014 36.5711 8.32928V32.4458C36.5711 34.6549 34.7803 36.4458 32.5711 36.4458H8.45458C6.24545 36.4458 4.45459 34.6549 4.45459 32.4458V8.32928ZM33.6798 9.66509C33.6798 11.0156 32.585 12.1105 31.2345 12.1105C29.8839 12.1105 28.7891 11.0156 28.7891 9.66509C28.7891 8.31453 29.8839 7.2197 31.2345 7.2197C32.585 7.2197 33.6798 8.31453 33.6798 9.66509ZM20.513 14.1101C17.0465 14.1101 14.2363 16.9203 14.2363 20.3868C14.2363 23.8533 17.0465 26.6635 20.513 26.6635C23.9796 26.6635 26.7897 23.8533 26.7897 20.3868C26.7897 16.9203 23.9796 14.1101 20.513 14.1101ZM10.2363 20.3868C10.2363 14.7111 14.8374 10.1101 20.513 10.1101C26.1887 10.1101 30.7897 14.7111 30.7897 20.3868C30.7897 26.0625 26.1887 30.6635 20.513 30.6635C14.8374 30.6635 10.2363 26.0625 10.2363 20.3868Z" fill="#1F283D"/>
</svg>
