<svg width="30" height="31" viewBox="0 0 30 31" fill="none" xmlns="http://www.w3.org/2000/svg">
<path d="M24.57 30.3293L24.6219 30.1596C25.3172 30.2531 25.8105 29.874 26.1409 29.1816C26.3183 28.8112 26.4957 28.4165 26.5736 28.0045C26.8246 26.682 27.0684 25.3526 27.2444 24.0128C28.1618 17.0004 29.0735 9.98809 29.9535 2.96882C30.2189 0.853513 29.3375 -0.0379612 27.6065 0.467496C27.4666 0.50904 27.3252 0.545392 27.191 0.604246C25.9433 1.14779 24.6753 1.63074 23.4549 2.25044C16.1385 5.97213 8.83067 9.72325 1.52143 13.4726C1.20985 13.6319 0.906918 13.8361 0.628512 14.0681C-0.254309 14.8072 -0.200936 15.6589 0.749683 16.2319C0.92567 16.3375 1.10743 16.4361 1.29495 16.5071C2.68121 17.023 4.0718 17.5284 5.45806 18.0443C7.25688 18.7142 8.85086 18.2676 10.3987 16.9918C13.8232 14.1685 17.2968 11.4335 20.7545 8.66733C21.1281 8.36959 21.5032 8.05628 21.9143 7.85375C22.0903 7.7672 22.4206 7.87106 22.5606 8.03551C22.6485 8.13937 22.5851 8.58078 22.4711 8.75907C22.1408 9.26799 21.7686 9.74402 21.3791 10.1924C19.0004 12.9291 16.6087 15.6503 14.23 18.3887C13.8939 18.7747 13.5708 19.1919 13.3025 19.6472C12.8885 20.3482 12.9404 21.0095 13.4135 21.6552C13.6025 21.9131 13.8117 22.1641 14.0468 22.3562C16.9145 24.7017 19.7779 27.0577 22.6716 29.353C23.2371 29.8013 23.9338 30.009 24.57 30.3293Z" fill="#1F283D"/>
</svg>
